# xmcd
#
# Track frame offsets:
#	150
#	13081
#	26623
#	39380
#	54301
#	69264
#	91829
#	103766
#	114469
#	130066
#	142723
#	160496
#
# Disc length: 2350 seconds
#
# Revision: 0
# Processed by: cddbd v1.4b42PL1 Copyright (c) Steve Scherf et al.
# Submitted via: EasyCDDAExtractor 4.5.0.2
#
DISCID=91092c0c
DTITLE=Elmore James - Slidin' into the Blues
DYEAR=1900
DGENRE=Blues
TTITLE0=I'm Worried
TTITLE1=Standing at the Crossroads
TTITLE2=The Sky Is Crying
TTITLE3=Pickin' the Blues
TTITLE4=Every Day I Have the Blues
TTITLE5=Something Inside of Me
TTITLE6=Mean Mistreatin' Mama
TTITLE7=I Done Somebody Wrong
TTITLE8=I Believe
TTITLE9=The Sun Is Shining
TTITLE10=She's Got to Go
TTITLE11=Twelve Year Old Boy
EXTD=
EXTT0=
EXTT1=
EXTT2=
EXTT3=
EXTT4=
EXTT5=
EXTT6=
EXTT7=
EXTT8=
EXTT9=
EXTT10=
EXTT11=
PLAYORDER=
